<?xml version="1.0" encoding="UTF-8" standalone="no"?>
<!DOCTYPE svg PUBLIC "-//W3C//DTD SVG 1.1//EN"
 "http://www.w3.org/Graphics/SVG/1.1/DTD/svg11.dtd">
<!-- Generated by graphviz version 12.1.1 (20240910.0053)
 -->
<!-- Title: INFRA Pages: 1 -->
<svg width="885pt" height="188pt"
 viewBox="0.00 0.00 885.35 188.00" xmlns="http://www.w3.org/2000/svg" xmlns:xlink="http://www.w3.org/1999/xlink">
<g id="graph0" class="graph" transform="scale(1 1) rotate(0) translate(4 184)">
<title>INFRA</title>
<polygon fill="white" stroke="none" points="-4,4 -4,-184 881.35,-184 881.35,4 -4,4"/>
<!-- AppDbContext -->
<g id="node1" class="node">
<title>AppDbContext</title>
<path fill="#ffcfb3" stroke="black" stroke-width="2" d="M174.7,-65.45C174.7,-69.07 135.55,-72 87.35,-72 39.15,-72 0,-69.07 0,-65.45 0,-65.45 0,-6.55 0,-6.55 0,-2.93 39.15,0 87.35,0 135.55,0 174.7,-2.93 174.7,-6.55 174.7,-6.55 174.7,-65.45 174.7,-65.45"/>
<path fill="none" stroke="black" stroke-width="2" d="M174.7,-65.45C174.7,-61.84 135.55,-58.91 87.35,-58.91 39.15,-58.91 0,-61.84 0,-65.45"/>
<text text-anchor="middle" x="87.35" y="-40.2" font-family="Arial" font-size="14.00">AppDbContext</text>
<text text-anchor="middle" x="87.35" y="-23.4" font-family="Arial" font-size="14.00">(AWS::RDS::DBInstance)</text>
</g>
<!-- IdentityService -->
<g id="node2" class="node">
<title>IdentityService</title>
<path fill="#e6e6e6" stroke="black" stroke-width="2" d="M359.65,-72C359.65,-72 205.05,-72 205.05,-72 199.05,-72 193.05,-66 193.05,-60 193.05,-60 193.05,-12 193.05,-12 193.05,-6 199.05,0 205.05,0 205.05,0 359.65,0 359.65,0 365.65,0 371.65,-6 371.65,-12 371.65,-12 371.65,-60 371.65,-60 371.65,-66 365.65,-72 359.65,-72"/>
<text text-anchor="middle" x="282.35" y="-40.2" font-family="Arial" font-size="14.00">IdentityService</text>
<text text-anchor="middle" x="282.35" y="-23.4" font-family="Arial" font-size="14.00">(AWS::Cognito::UserPool)</text>
</g>
<!-- LoggingService -->
<g id="node3" class="node">
<title>LoggingService</title>
<path fill="#e6e6e6" stroke="black" stroke-width="2" d="M589,-72C589,-72 401.7,-72 401.7,-72 395.7,-72 389.7,-66 389.7,-60 389.7,-60 389.7,-12 389.7,-12 389.7,-6 395.7,0 401.7,0 401.7,0 589,0 589,0 595,0 601,-6 601,-12 601,-12 601,-60 601,-60 601,-66 595,-72 589,-72"/>
<text text-anchor="middle" x="495.35" y="-40.2" font-family="Arial" font-size="14.00">LoggingService</text>
<text text-anchor="middle" x="495.35" y="-23.4" font-family="Arial" font-size="14.00">(AWS::CloudWatch::LogGroup)</text>
</g>
<!-- ApplicationInsights -->
<g id="node4" class="node">
<title>ApplicationInsights</title>
<path fill="#e6e6e6" stroke="black" stroke-width="2" d="M865.35,-72C865.35,-72 631.35,-72 631.35,-72 625.35,-72 619.35,-66 619.35,-60 619.35,-60 619.35,-12 619.35,-12 619.35,-6 625.35,0 631.35,0 631.35,0 865.35,0 865.35,0 871.35,0 877.35,-6 877.35,-12 877.35,-12 877.35,-60 877.35,-60 877.35,-66 871.35,-72 865.35,-72"/>
<text text-anchor="middle" x="748.35" y="-40.2" font-family="Arial" font-size="14.00">ApplicationInsights</text>
<text text-anchor="middle" x="748.35" y="-23.4" font-family="Arial" font-size="14.00">(AWS::ApplicationInsights::Application)</text>
</g>
<!-- WebApplication -->
<g id="node5" class="node">
<title>WebApplication</title>
<path fill="#b7e0ff" stroke="black" stroke-width="2" d="M498.34,-180C498.34,-180 278.36,-180 278.36,-180 272.36,-180 266.36,-174 266.36,-168 266.36,-168 266.36,-120 266.36,-120 266.36,-114 272.36,-108 278.36,-108 278.36,-108 498.34,-108 498.34,-108 504.34,-108 510.34,-114 510.34,-120 510.34,-120 510.34,-168 510.34,-168 510.34,-174 504.34,-180 498.34,-180"/>
<text text-anchor="middle" x="388.35" y="-148.2" font-family="Arial" font-size="14.00">WebApplication</text>
<text text-anchor="middle" x="388.35" y="-131.4" font-family="Arial" font-size="14.00">(AWS::ElasticBeanstalk::Application)</text>
</g>
<!-- WebApplication&#45;&gt;AppDbContext -->
<g id="edge1" class="edge">
<title>WebApplication&#45;&gt;AppDbContext</title>
<path fill="none" stroke="black" d="M285.8,-107.56C256.12,-97.24 223.48,-85.84 185.85,-72.52"/>
<polygon fill="black" stroke="black" points="187.13,-69.26 176.53,-69.22 184.79,-75.86 187.13,-69.26"/>
</g>
<!-- WebApplication&#45;&gt;IdentityService -->
<g id="edge2" class="edge">
<title>WebApplication&#45;&gt;IdentityService</title>
<path fill="none" stroke="black" d="M353.06,-107.7C344.2,-98.85 334.61,-89.26 325.43,-80.08"/>
<polygon fill="black" stroke="black" points="328.11,-77.81 318.56,-73.21 323.16,-82.76 328.11,-77.81"/>
</g>
<!-- WebApplication&#45;&gt;LoggingService -->
<g id="edge3" class="edge">
<title>WebApplication&#45;&gt;LoggingService</title>
<path fill="none" stroke="black" d="M423.98,-107.7C432.91,-98.85 442.6,-89.26 451.87,-80.08"/>
<polygon fill="black" stroke="black" points="454.16,-82.73 458.8,-73.21 449.23,-77.76 454.16,-82.73"/>
</g>
<!-- WebApplication&#45;&gt;ApplicationInsights -->
<g id="edge4" class="edge">
<title>WebApplication&#45;&gt;ApplicationInsights</title>
<path fill="none" stroke="black" d="M508.73,-107.56C543.55,-97.3 581.73,-86.06 617.18,-75.62"/>
<polygon fill="black" stroke="black" points="618.03,-79.02 626.64,-72.84 616.06,-72.31 618.03,-79.02"/>
</g>
</g>
</svg>
